<svg xmlns="http://www.w3.org/2000/svg" height="24" width="24" viewBox="0 0 24 24"><path d="M12 21q-1.85 0-3.5-.712-1.65-.713-2.862-1.926Q4.425 17.15 3.712 15.5 3 13.85 3 12q0-1.875.712-3.513.713-1.637 1.926-2.85Q6.85 4.425 8.5 3.712 10.15 3 12 3q1.875 0 3.513.712 1.637.713 2.85 1.925 1.212 1.213 1.925 2.85Q21 10.125 21 12q0 1.85-.712 3.5-.713 1.65-1.925 2.862-1.213 1.213-2.85 1.926Q13.875 21 12 21Zm0-1q.875-1.125 1.45-2.212.575-1.088.925-2.438h-4.75q.4 1.425.95 2.512Q11.125 18.95 12 20Zm-1.275-.15q-.7-.825-1.275-2.038-.575-1.212-.85-2.462H4.75q.875 1.85 2.45 3.05 1.575 1.2 3.525 1.45Zm2.55 0q1.95-.25 3.525-1.45t2.45-3.05H15.4q-.375 1.275-.95 2.487-.575 1.213-1.175 2.013Zm-8.925-5.5h4.025q-.1-.625-.15-1.2-.05-.575-.05-1.15t.05-1.15q.05-.575.15-1.2H4.35q-.175.525-.262 1.137Q4 11.4 4 12q0 .6.088 1.212.087.613.262 1.138Zm5.025 0h5.25q.1-.625.15-1.188.05-.562.05-1.162 0-.6-.05-1.163-.05-.562-.15-1.187h-5.25q-.1.625-.15 1.187-.05.563-.05 1.163 0 .6.05 1.162.05.563.15 1.188Zm6.25 0h4.025q.175-.525.263-1.138Q20 12.6 20 12t-.087-1.213q-.088-.612-.263-1.137h-4.025q.1.625.15 1.2.05.575.05 1.15t-.05 1.15q-.05.575-.15 1.2Zm-.225-5.7h3.85q-.875-1.9-2.413-3.05-1.537-1.15-3.562-1.475.7.925 1.263 2.113.562 1.187.862 2.412Zm-5.775 0h4.75q-.4-1.4-.975-2.538Q12.825 4.975 12 4q-.825.975-1.4 2.112-.575 1.138-.975 2.538Zm-4.875 0H8.6q.3-1.225.863-2.412.562-1.188 1.262-2.113-2.05.325-3.575 1.487-1.525 1.163-2.4 3.038Z"/></svg>